<mxfile host="app.diagrams.net" modified="2024-04-13T10:02:21.114Z" agent="Mozilla/5.0 (X11; Ubuntu; Linux x86_64; rv:124.0) Gecko/20100101 Firefox/124.0" etag="XNhJ1aF1T92anZOFCDCu" version="24.2.3" type="github">
  <diagram name="Page-1" id="PT1lNX2SqgrQE3uxzd4M">
    <mxGraphModel dx="818" dy="935" grid="0" gridSize="10" guides="1" tooltips="1" connect="1" arrows="1" fold="1" page="1" pageScale="1" pageWidth="850" pageHeight="1100" math="0" shadow="0">
      <root>
        <mxCell id="0" />
        <mxCell id="1" parent="0" />
        <mxCell id="psHG3767NSkcPVOny0a3-1" value="&lt;div&gt;Cred Admin&lt;/div&gt;&lt;div&gt;&lt;br&gt;&lt;/div&gt;" style="shape=umlActor;verticalLabelPosition=bottom;verticalAlign=top;html=1;outlineConnect=0;" vertex="1" parent="1">
          <mxGeometry x="130" y="451" width="60" height="110" as="geometry" />
        </mxCell>
        <mxCell id="psHG3767NSkcPVOny0a3-2" value="Cred Admin can respond to users in case of any discrepancies" style="ellipse;whiteSpace=wrap;html=1;" vertex="1" parent="1">
          <mxGeometry x="385" y="456" width="222" height="133" as="geometry" />
        </mxCell>
        <mxCell id="psHG3767NSkcPVOny0a3-4" style="edgeStyle=orthogonalEdgeStyle;rounded=0;orthogonalLoop=1;jettySize=auto;html=1;entryX=-0.005;entryY=0.381;entryDx=0;entryDy=0;entryPerimeter=0;" edge="1" parent="1" source="psHG3767NSkcPVOny0a3-1" target="psHG3767NSkcPVOny0a3-2">
          <mxGeometry relative="1" as="geometry" />
        </mxCell>
        <mxCell id="psHG3767NSkcPVOny0a3-23" style="edgeStyle=orthogonalEdgeStyle;rounded=0;orthogonalLoop=1;jettySize=auto;html=1;entryX=0;entryY=0;entryDx=0;entryDy=0;" edge="1" parent="1" source="psHG3767NSkcPVOny0a3-10" target="psHG3767NSkcPVOny0a3-22">
          <mxGeometry relative="1" as="geometry" />
        </mxCell>
        <mxCell id="psHG3767NSkcPVOny0a3-10" value="ACTIVE REVIEW REQUEST" style="ellipse;whiteSpace=wrap;html=1;aspect=fixed;" vertex="1" parent="1">
          <mxGeometry x="385" y="93" width="140" height="140" as="geometry" />
        </mxCell>
        <mxCell id="psHG3767NSkcPVOny0a3-11" value="Bank Info Verification" style="ellipse;shape=umlControl;whiteSpace=wrap;html=1;" vertex="1" parent="1">
          <mxGeometry x="251" y="39" width="162" height="92" as="geometry" />
        </mxCell>
        <mxCell id="psHG3767NSkcPVOny0a3-20" value="" style="ellipse;whiteSpace=wrap;html=1;aspect=fixed;fillColor=#000000;" vertex="1" parent="1">
          <mxGeometry x="130" y="149" width="48" height="48" as="geometry" />
        </mxCell>
        <mxCell id="psHG3767NSkcPVOny0a3-21" value="" style="endArrow=classic;html=1;rounded=0;exitX=1;exitY=0.5;exitDx=0;exitDy=0;entryX=0.014;entryY=0.564;entryDx=0;entryDy=0;entryPerimeter=0;" edge="1" parent="1" source="psHG3767NSkcPVOny0a3-20" target="psHG3767NSkcPVOny0a3-10">
          <mxGeometry width="50" height="50" relative="1" as="geometry">
            <mxPoint x="248" y="206" as="sourcePoint" />
            <mxPoint x="298" y="156" as="targetPoint" />
          </mxGeometry>
        </mxCell>
        <mxCell id="psHG3767NSkcPVOny0a3-22" value="" style="ellipse;html=1;shape=endState;fillColor=#000000;strokeColor=#ff0000;" vertex="1" parent="1">
          <mxGeometry x="617" y="158" width="30" height="30" as="geometry" />
        </mxCell>
        <UserObject label="&lt;span style=&quot;border:none;display:inline-block;overflow:hidden;width:524px;height:327px;&quot; id=&quot;docs-internal-guid-5e38adb6-7fff-9ffb-5c12-e550d1e2095e&quot;&gt;&lt;img src=&quot;https://lh7-us.googleusercontent.com/9Mz8KmVQ7wwJF5ehwgUruJ39X6KjFj7mjts9vnyU2jn_O5P3O1cP04cHsV5Ak3avZoocpR8c4329ARw0GuCxz9SnFV4N5wwahITZvDoq0u0f4iHV7UnNSX3BrEPehCrc97l18WkVKppoQiGS0cn1nB0VBHvWfAng&quot; width=&quot;524&quot; height=&quot;327&quot; style=&quot;margin-left:0px;margin-top:0px;&quot;&gt;&lt;/span&gt;" link="&lt;span style=&quot;border:none;display:inline-block;overflow:hidden;width:524px;height:327px;&quot; id=&quot;docs-internal-guid-5e38adb6-7fff-9ffb-5c12-e550d1e2095e&quot;&gt;&lt;img src=&quot;https://lh7-us.googleusercontent.com/9Mz8KmVQ7wwJF5ehwgUruJ39X6KjFj7mjts9vnyU2jn_O5P3O1cP04cHsV5Ak3avZoocpR8c4329ARw0GuCxz9SnFV4N5wwahITZvDoq0u0f4iHV7UnNSX3BrEPehCrc97l18WkVKppoQiGS0cn1nB0VBHvWfAng&quot; width=&quot;524&quot; height=&quot;327&quot; style=&quot;margin-left:0px;margin-top:0px;&quot;&gt;&lt;/span&gt;" id="psHG3767NSkcPVOny0a3-24">
          <mxCell style="text;whiteSpace=wrap;html=1;" vertex="1" parent="1">
            <mxGeometry x="301.99823529411753" y="635.0047058823529" width="550" height="354" as="geometry" />
          </mxCell>
        </UserObject>
        <mxCell id="psHG3767NSkcPVOny0a3-25" value="" style="shape=image;verticalLabelPosition=bottom;labelBackgroundColor=default;verticalAlign=top;aspect=fixed;imageAspect=0;image=data:image/png,iVBORw0KGgoAAAANSUhEUgAAAZQAAAD3CAMAAAANDFLSAAAAZXpUWHRSYXcgcHJvZmlsZSB0eXBlIGV4aWYAAHjaVYvLDYAwDEPvmYIRTAj5jJMDldiA8Qkth/ZJlp4sm67nbrR1lElOcw1VFBISnCWOwQ5ouEGG9yqxwl8SNI9CfjtqPfXN1i+91mYb43RO2n4AAAmMaVRYdFhNTDpjb20uYWRvYmUueG1wAAAAAAA8P3hwYWNrZXQgYmVnaW49Iu+7vyIgaWQ9Ilc1TTBNcENlaGlIenJlU3pOVGN6a2M5ZCI/Pgo8eDp4bXBtZXRhIHhtbG5zOng9ImFkb2JlOm5zOm1ldGEvIiB4OnhtcHRrPSJYTVAgQ29yZSA0LjQuMC1FeGl2MiI+CiA8cmRmOlJERiB4bWxuczpyZGY9Imh0dHA6Ly93d3cudzMub3JnLzE5OTkvMDIvMjItcmRmLXN5bnRheC1ucyMiPgogIDxyZGY6RGVzY3JpcHRpb24gcmRmOmFib3V0PSIiCiAgICB4bWxuczpleGlmPSJodHRwOi8vbnMuYWRvYmUuY29tL2V4aWYvMS4wLyIKICAgZXhpZjpQaXhlbFhEaW1lbnNpb249IjYxOSIKICAgZXhpZjpQaXhlbFlEaW1lbnNpb249IjM3OSIvPgogPC9yZGY6UkRGPgo8L3g6eG1wbWV0YT4KICAgICAgICAgICAgICAgICAgICAgICAgICAgICAgICAgICAgICAgICAgICAgICAgICAgICAgICAgICAgICAgICAgICAgICAgICAgICAgICAgICAgICAgICAgICAgICAgICAgIAogICAgICAgICAgICAgICAgICAgICAgICAgICAgICAgICAgICAgICAgICAgICAgICAgICAgICAgICAgICAgICAgICAgICAgICAgICAgICAgICAgICAgICAgICAgICAgICAgICAgCiAgICAgICAgICAgICAgICAgICAgICAgICAgICAgICAgICAgICAgICAgICAgICAgICAgICAgICAgICAgICAgICAgICAgICAgICAgICAgICAgICAgICAgICAgICAgICAgICAgICAKICAgICAgICAgICAgICAgICAgICAgICAgICAgICAgICAgICAgICAgICAgICAgICAgICAgICAgICAgICAgICAgICAgICAgICAgICAgICAgICAgICAgICAgICAgICAgICAgICAgIAogICAgICAgICAgICAgICAgICAgICAgICAgICAgICAgICAgICAgICAgICAgICAgICAgICAgICAgICAgICAgICAgICAgICAgICAgICAgICAgICAgICAgICAgICAgICAgICAgICAgCiAgICAgICAgICAgICAgICAgICAgICAgICAgICAgICAgICAgICAgICAgICAgICAgICAgICAgICAgICAgICAgICAgICAgICAgICAgICAgICAgICAgICAgICAgICAgICAgICAgICAKICAgICAgICAgICAgICAgICAgICAgICAgICAgICAgICAgICAgICAgICAgICAgICAgICAgICAgICAgICAgICAgICAgICAgICAgICAgICAgICAgICAgICAgICAgICAgICAgICAgIAogICAgICAgICAgICAgICAgICAgICAgICAgICAgICAgICAgICAgICAgICAgICAgICAgICAgICAgICAgICAgICAgICAgICAgICAgICAgICAgICAgICAgICAgICAgICAgICAgICAgCiAgICAgICAgICAgICAgICAgICAgICAgICAgICAgICAgICAgICAgICAgICAgICAgICAgICAgICAgICAgICAgICAgICAgICAgICAgICAgICAgICAgICAgICAgICAgICAgICAgICAKICAgICAgICAgICAgICAgICAgICAgICAgICAgICAgICAgICAgICAgICAgICAgICAgICAgICAgICAgICAgICAgICAgICAgICAgICAgICAgICAgICAgICAgICAgICAgICAgICAgIAogICAgICAgICAgICAgICAgICAgICAgICAgICAgICAgICAgICAgICAgICAgICAgICAgICAgICAgICAgICAgICAgICAgICAgICAgICAgICAgICAgICAgICAgICAgICAgICAgICAgCiAgICAgICAgICAgICAgICAgICAgICAgICAgICAgICAgICAgICAgICAgICAgICAgICAgICAgICAgICAgICAgICAgICAgICAgICAgICAgICAgICAgICAgICAgICAgICAgICAgICAKICAgICAgICAgICAgICAgICAgICAgICAgICAgICAgICAgICAgICAgICAgICAgICAgICAgICAgICAgICAgICAgICAgICAgICAgICAgICAgICAgICAgICAgICAgICAgICAgICAgIAogICAgICAgICAgICAgICAgICAgICAgICAgICAgICAgICAgICAgICAgICAgICAgICAgICAgICAgICAgICAgICAgICAgICAgICAgICAgICAgICAgICAgICAgICAgICAgICAgICAgCiAgICAgICAgICAgICAgICAgICAgICAgICAgICAgICAgICAgICAgICAgICAgICAgICAgICAgICAgICAgICAgICAgICAgICAgICAgICAgICAgICAgICAgICAgICAgICAgICAgICAKICAgICAgICAgICAgICAgICAgICAgICAgICAgICAgICAgICAgICAgICAgICAgICAgICAgICAgICAgICAgICAgICAgICAgICAgICAgICAgICAgICAgICAgICAgICAgICAgICAgIAogICAgICAgICAgICAgICAgICAgICAgICAgICAgICAgICAgICAgICAgICAgICAgICAgICAgICAgICAgICAgICAgICAgICAgICAgICAgICAgICAgICAgICAgICAgICAgICAgICAgCiAgICAgICAgICAgICAgICAgICAgICAgICAgICAgICAgICAgICAgICAgICAgICAgICAgICAgICAgICAgICAgICAgICAgICAgICAgICAgICAgICAgICAgICAgICAgICAgICAgICAKICAgICAgICAgICAgICAgICAgICAgICAgICAgICAgICAgICAgICAgICAgICAgICAgICAgICAgICAgICAgICAgICAgICAgICAgICAgICAgICAgICAgICAgICAgICAgICAgICAgIAogICAgICAgICAgICAgICAgICAgICAgICAgICAgICAgICAgICAgICAgICAgICAgICAgICAgICAgICAgICAgICAgICAgICAgICAgICAgICAgICAgICAgICAgICAgICAgICAgICAgCiAgICAgICAgICAgICAgICAgICAgICAgICAgIAo8P3hwYWNrZXQgZW5kPSJ3Ij8+W5Am9QAAAwBQTFRFAAAA/Pz8FhYWJiYmiYmJ2dnZ6Ojol5eXqampurq6eXl5Nzc3xsbGR0dHV1dXaGhoAAAAAAAAAAAAAAAAAAAAAAAAAAAAAAAAAAAAAAAAAAAAAAAAAAAAAAAAAAAAAAAAAAAAAAAAAAAAAAAAAAAAAAAAAAAAAAAAAAAAAAAAAAAAAAAAAAAAAAAAAAAAAAAAAAAAAAAAAAAAAAAAAAAAAAAAAAAAAAAAAAAAAAAAAAAAAAAAAAAAAAAAAAAAAAAAAAAAAAAAAAAAAAAAAAAAAAAAAAAAAAAAAAAAAAAAAAAAAAAAAAAAAAAAAAAAAAAAAAAAAAAAAAAAAAAAAAAAAAAAAAAAAAAAAAAAAAAAAAAAAAAAAAAAAAAAAAAAAAAAAAAAAAAAAAAAAAAAAAAAAAAAAAAAAAAAAAAAAAAAAAAAAAAAAAAAAAAAAAAAAAAAAAAAAAAAAAAAAAAAAAAAAAAAAAAAAAAAAAAAAAAAAAAAAAAAAAAAAAAAAAAAAAAAAAAAAAAAAAAAAAAAAAAAAAAAAAAAAAAAAAAAAAAAAAAAAAAAAAAAAAAAAAAAAAAAAAAAAAAAAAAAAAAAAAAAAAAAAAAAAAAAAAAAAAAAAAAAAAAAAAAAAAAAAAAAAAAAAAAAAAAAAAAAAAAAAAAAAAAAAAAAAAAAAAAAAAAAAAAAAAAAAAAAAAAAAAAAAAAAAAAAAAAAAAAAAAAAAAAAAAAAAAAAAAAAAAAAAAAAAAAAAAAAAAAAAAAAAAAAAAAAAAAAAAAAAAAAAAAAAAAAAAAAAAAAAAAAAAAAAAAAAAAAAAAAAAAAAAAAAAAAAAAAAAAAAAAAAAAAAAAAAAAAAAAAAAAAAAAAAAAAAAAAAAAAAAAAAAAAAAAAAAAAAAAAAAAAAAAAAAAAAAAAAAAAAAAAAAAAAAAAAAAAAAAAAAAAAAAAAAAAAAAAAAAAAAAAAAAAAAAAAAAAAAAAAAAAAAAAAAAAAAAAAAAAAAAAAAAAAAAAAAAAAAAAAAAAAAAAZArJPQAAAQB0Uk5T/////////////////////wAAAAAAAAAAAAAAAAAAAAAAAAAAAAAAAAAAAAAAAAAAAAAAAAAAAAAAAAAAAAAAAAAAAAAAAAAAAAAAAAAAAAAAAAAAAAAAAAAAAAAAAAAAAAAAAAAAAAAAAAAAAAAAAAAAAAAAAAAAAAAAAAAAAAAAAAAAAAAAAAAAAAAAAAAAAAAAAAAAAAAAAAAAAAAAAAAAAAAAAAAAAAAAAAAAAAAAAAAAAAAAAAAAAAAAAAAAAAAAAAAAAAAAAAAAAAAAAAAAAAAAAAAAAAAAAAAAAAAAAAAAAAAAAAAAAAAAAAAAAAAAAAAAAAAAAAAAAAAAAH7YuKwAAAYjSURBVHic7d3rlqMoFIbh8nyO93+3nQDCxsbEROgwNe/zY1aVMVlTfg0bUcnPDwAAAAAAAAAAAAAAAAAAAAAAAAAAAAAAAAAAAAAAOFZG8+2/5NcY5yaauf72X/M73Iqo1m//Pb9CHTeU7tt/z69AKBlSoQx9BAOhxKJCqWJ8UkkosUQMpSWUSGgpGSKUDBFKhgglQ+FQyvG8ZXsPocQSDmV654TRTHgRymXbjG6EUFrziYQSS4xQdMCEEg2hZOhg9FWd1BNKAheHxB2hJHAxFFpKCrSUDBFKhgglQ34oZwZck7yTiFBSkKHcmvYMeccKoaQgQimbcyeLo3g7oaQgQqlOnsHTUlL7IBRaSmr7UJqufqqru0m8nVBS2Icyvth/h1BSIJQM7UN58755QkmBUDJ0MZTHLHFBKJFdDKWe53kglMguhiIQSjSEkiFCyRChZIhQMhQOpRzrunvzSV9CieYglMeP83ufRCjRHITyeFRueO+TCCUaQskQoWSIUDJ0MZR16Ieeua/ILobCLHEKF0PhekoKhJIhQskQoWSIUDL0JJTmaKHO1T06QSgpPAmlmG+hd9zmore/EEoKz0Ipin7a7z+pBfDsZkJJ4eAi11gYnfeUV9XprXZWn1BSOLryeNseVmlHW1rK2jSgYt62EUoKh5eDXQKNuQS5BnIilBSe3OC99VX3wfGi6nugRyOUFP56PkWWdl3VVcXv7U9yh6UhlAREKFOgtLv2YYrJIl6sdFKEElvgQVRRMn5EJRHVRe++Lf5thmKEEo18ZHtqnh78ZpVhjXYkZt5NKNH4ixu4I73vppreO72//Z0fi0VHs1sGxI24/IK+ePNgix0A1G47oUTz19oskx1n+SfzThXeg+4rGv2tEN4U17KNuPyKb9gSs3vXxLdCRGMOce+1ijVY8RVXdbwas3V7hBLDsrUKUx3Mf8MVP1Tf1e52SsbbG58SM4+PXyezclQZqPi2vre116/ZBBsyiaRc7TF99EjlZELYV/yD+h6cp8Rlrnarzsp+X6NrGeNhfbejgqImkrgOTk9EDfFak/V6/IwL3ISwf3htvQjU96MoEY07PfE6Ilfx9y/4nR7SODg92fqoXROyOwfveUE0B6eGj0Y0hItN++ZaVHiffwnYmRhyfZM7HekPBlTTyz0QnRiIBdqBaEsMuf6l2+E8sbj1i/r+rx0MxJ5MHyO90DyxaEDf/F/7P9sXDzHkor5/jxxmMeTKhpt6YciVEf8WSYZcmXDzxAy58mGmg7mwmJeqb5vQ2T2+qiQSAAAAAAAAAAAAAPivqcZ+GPr6Jq74rsOmH8WNXvXgUW+oxK4LF43jcDd2iUcaO3mz12Bvidwtk6cfr5dbuMk4hrKXx9QuIFl7B7/dNg/e5kAoRTFzB+VV5e7f/ra2ih+KXfX+RCguQXxod5RtKrtQtsWJzoRy/L0FOGXVh7Ffl+mmH9Fq9c3CZhWwO/OYkC4rKpS6mgy1TYey3Deaj2B5qUsqnYPpssrBPeSoQtHf/aAXxtVZqVB2NxTrUPT7Kt2U6MAuGP1DWHb2mS0Rih5y6VHVcSjbiquNeCM+oY5g8LvOZSjDLpSxNPTLsqXcB9iq7VFVPlYe9zUilGrffbWNNpTidRtD40YL+ICqFuHvN9eF/tEcplkcdG/01QZDCfVwOG95EUrxaA+FHFB5oTTBUHpCueRlKPvjTyjpqe6rDT7r64fSbPucCGV2FQifaA8PoBdK7xeM8UeMvfahPAkap6i54Mb97gZiKpSm61Rs7rTj1cmj6b3CXSJO0Sfr9pivbsWPbUisTjvcCFecslheKPp0lN7rCj1vP6trU3rVD7MkoT1PGbx/+cehPN5WmlUpaCiXVOYR+Xaet+WJ9CG3oUyFzEGF0uyuPOoghmHenrdn6uuabaV7V9T1dndGr9pP+8b1FMbDl928ZYftrLsLRX9h7RvXU7ggfF0lrge7xWzF3JecSn4dCuvpxDHVj2rQel+6JWeJVbXRxfv5jRPN0DHuiqesKn9JifuG+ybxcyV+tPTr228sSgEAAAAAAAAAAAAAAAAAAAAAAAAAAAAAAAAAAAAAAAAAAAAAAABk6A9mEzTd9Ov78gAAAABJRU5ErkJggg==;" vertex="1" parent="1">
          <mxGeometry x="599" y="770" width="112" height="68.47" as="geometry" />
        </mxCell>
        <mxCell id="psHG3767NSkcPVOny0a3-27" value="&lt;h1&gt;CRED&lt;/h1&gt;" style="text;html=1;align=center;verticalAlign=middle;resizable=0;points=[];autosize=1;strokeColor=none;fillColor=none;labelBackgroundColor=default;" vertex="1" parent="1">
          <mxGeometry x="612" y="836" width="86" height="73" as="geometry" />
        </mxCell>
      </root>
    </mxGraphModel>
  </diagram>
</mxfile>
